<?xml version="1.0" standalone="no"?>
<!DOCTYPE svg PUBLIC "-//W3C//DTD SVG 20010904//EN"
 "http://www.w3.org/TR/2001/REC-SVG-20010904/DTD/svg10.dtd">
<svg version="1.0" xmlns="http://www.w3.org/2000/svg"
 width="300.000000pt" height="169.000000pt" viewBox="0 0 300.000000 169.000000"
 preserveAspectRatio="xMidYMid meet">
<metadata>
Created by potrace 1.10, written by Peter Selinger 2001-2011
</metadata>
<g transform="translate(0.000000,169.000000) scale(0.100000,-0.100000)"
fill="#000000" stroke="none">
<path d="M221 1344 c-21 -26 -21 -37 -21 -460 0 -419 1 -435 20 -454 11 -11
30 -22 42 -25 13 -3 498 -4 1078 -3 l1055 3 63 24 c108 40 219 136 267 230 76
151 75 305 -5 461 -32 62 -135 161 -200 193 -123 59 -79 57 -1226 57 l-1053 0
-20 -26z m2209 -34 c19 -7 42 -16 50 -21 8 -5 29 -15 47 -23 18 -8 57 -40 88
-71 105 -107 139 -217 121 -395 -13 -130 -169 -305 -298 -336 -10 -2 -28 -7
-40 -11 -13 -3 -108 -8 -212 -10 l-189 -4 17 23 c51 70 51 71 51 428 0 267 -3
341 -14 365 -8 17 -13 35 -12 40 2 6 -1 7 -5 3 -8 -9 -34 10 -34 24 0 15 387
4 430 -12z m-463 -12 c62 -43 63 -51 63 -413 0 -363 -2 -376 -65 -415 -32 -20
-48 -20 -855 -20 -752 0 -825 1 -842 17 -17 15 -18 41 -18 416 0 359 2 402 17
419 15 17 55 18 841 18 l826 0 33 -22z"/>
<path d="M2229 1068 c-21 -5 -47 -20 -59 -33 -22 -23 -22 -26 -6 -49 16 -25
17 -25 45 -8 16 9 27 20 24 25 -3 4 -15 1 -28 -7 -17 -11 -26 -13 -31 -4 -15
25 98 71 150 61 37 -7 66 -56 66 -111 0 -60 13 -78 67 -96 58 -19 146 -84 152
-111 3 -17 -1 -16 -32 8 -36 27 -61 37 -39 15 13 -13 16 -28 5 -28 -5 0 -21
11 -37 25 -24 20 -45 25 -73 16 -1 -1 2 -13 7 -27 16 -42 -21 -26 -43 19 -10
20 -23 37 -29 37 -7 0 -7 -5 1 -13 8 -11 7 -18 -7 -30 -17 -16 -18 -12 -20
105 -1 71 -7 127 -13 135 -17 20 -44 16 -76 -10 -15 -13 -37 -29 -48 -35 -19
-11 -19 -11 5 -11 14 0 34 6 44 14 11 8 27 15 37 15 14 0 17 -16 23 -102 9
-130 11 -135 42 -135 15 0 30 -6 34 -13 4 -6 11 -12 16 -12 5 0 14 -3 21 -5 6
-3 20 0 31 6 11 6 49 9 85 6 48 -3 69 0 77 10 26 31 -57 115 -140 140 -39 12
-54 35 -67 99 -20 101 -77 133 -184 104z"/>
<path d="M478 1123 l32 -4 0 -215 0 -214 -30 0 c-16 0 -30 -4 -30 -9 0 -6 32
-9 70 -9 39 1 70 5 70 10 0 4 -7 8 -15 8 -12 0 -15 17 -15 95 l0 95 35 0 c33
0 38 -5 83 -76 26 -42 56 -87 67 -100 22 -26 85 -45 85 -25 0 6 -4 11 -10 11
-5 0 -39 44 -75 97 l-64 97 36 21 c75 41 80 147 10 197 -29 21 -44 23 -157 24
-69 1 -110 0 -92 -3z m215 -32 c18 -18 22 -33 22 -87 0 -60 -3 -68 -28 -90
-22 -18 -40 -24 -78 -24 l-49 0 0 116 0 116 56 -4 c39 -3 61 -11 77 -27z"/>
<path d="M1050 990 c-11 -11 -20 -26 -20 -32 0 -10 2 -10 8 0 7 10 14 10 38
-3 16 -8 34 -15 41 -15 16 0 29 -24 79 -155 23 -60 46 -110 50 -110 4 0 28 58
53 129 33 94 51 131 66 137 13 5 -2 7 -40 7 -33 0 -51 -2 -40 -5 11 -3 24 -8
28 -13 9 -8 -43 -190 -54 -190 -8 0 -69 173 -69 195 0 11 -11 15 -46 15 -39 0
-45 3 -40 16 6 17 -9 44 -25 44 -5 0 -18 -9 -29 -20z"/>
<path d="M920 949 c-14 -5 -34 -22 -43 -38 -27 -45 -22 -78 18 -118 32 -32 39
-35 78 -30 49 7 97 52 97 93 0 38 -30 82 -63 94 -35 12 -53 12 -87 -1z m79
-25 c40 -51 18 -144 -34 -144 -46 0 -71 75 -44 134 10 22 22 30 51 35 4 0 16
-11 27 -25z"/>
<path d="M886 739 c-31 -25 -32 -33 -6 -57 20 -18 20 -18 -10 -40 -49 -37 -38
-100 21 -121 90 -31 189 13 189 85 0 44 -31 72 -89 80 -25 3 -57 13 -69 21
-23 14 -23 15 -6 34 23 25 3 24 -30 -2z m101 -99 c95 -24 68 -110 -34 -110
-51 0 -83 23 -83 61 0 34 34 72 58 65 9 -3 36 -10 59 -16z"/>
</g>
</svg>
